<svg xmlns="http://www.w3.org/2000/svg" width="48" height="48" fill="none"><path d="M45 43H3V17a1 1 0 0 1 1-1h40a1 1 0 0 1 1 1v26Z" fill="#fff"/><path d="M12 42V11M3 23h42M3 29h42M3 35h42M36 42V11" stroke="#DEDEDE" stroke-width="1.6"/><path d="M45 16H3V7a1 1 0 0 1 1-1h40a1 1 0 0 1 1 1v9Z" fill="#FCFCFC"/><path d="M5.57 8.91h1.328L8.3 12.33h.06L9.76 8.91h1.328V14h-1.044v-3.314h-.043l-1.317 3.29h-.711l-1.317-3.302h-.043V14H5.57V8.91Zm8.872.887v-.888h4.18v.888h-1.558V14H16V9.797h-1.558ZM23.117 14l-1.456-5.09h1.175l.843 3.536h.042l.93-3.537h1.007l.927 3.545h.045l.842-3.545h1.176L27.192 14h-1.05l-.969-3.329h-.04L24.166 14h-1.049Zm8.573-4.203v-.888h4.181v.888h-1.558V14h-1.064V9.797H31.69ZM39.22 14V8.91h3.37v.887h-2.294v1.213h2.071v.887h-2.07V14H39.22Z" fill="#B2B2B2"/><path d="M28 42V16.5M20 42V16.5" stroke="#DEDEDE" stroke-width="1.6"/><rect x="3" y="7" width="42" height="35" rx="3" stroke="#DEDEDE" stroke-width="1.6"/><path d="M20 24v4a1 1 0 0 0 1 1h6a1 1 0 0 0 1-1v-4a1 1 0 0 0-1-1h-6a1 1 0 0 0-1 1Z" fill="#3170F9"/><path d="M3 16h42" stroke="#DEDEDE" stroke-width="1.6"/></svg>
